<?xml version="1.0" encoding="UTF-8"?><svg xmlns="http://www.w3.org/2000/svg" xmlns:xlink="http://www.w3.org/1999/xlink" stroke-dasharray="none" shape-rendering="auto" font-family="'Dialog'" width="805" text-rendering="auto" fill-opacity="1" contentScriptType="text/ecmascript" color-interpolation="auto" color-rendering="auto" preserveAspectRatio="xMidYMid meet" font-size="12" xmlns:diagram="http://www.eclipse.org/sirius/diagram/1.1.0" diagram:semanticRoot="platform:/resource/StudentMS/RequirementsModel/studentms.remodel#//@DomainModel" viewBox="0 0 805 524" fill="black" stroke="black" image-rendering="auto" stroke-miterlimit="10" zoomAndPan="magnify" version="1.0" stroke-linecap="square" stroke-linejoin="miter" contentStyleType="text/css" font-style="normal" height="524" stroke-width="1" stroke-dashoffset="0" font-weight="normal" stroke-opacity="1">
    <!--Generated by the Batik Graphics2D SVG Generator-->
    <defs id="genericDefs"/>
    <g>
        <defs id="defs1">
            <linearGradient x1="142" x2="240" y1="3" gradientUnits="userSpaceOnUse" y2="87" xlink:type="simple" xlink:actuate="onLoad" id="linearGradient1" xlink:show="other" spreadMethod="pad">
                <stop stop-opacity="1" stop-color="white" offset="0%"/>
                <stop stop-opacity="1" stop-color="rgb(194,239,255)" offset="100%"/>
            </linearGradient>
            <linearGradient x1="16" x2="125" y1="139" gradientUnits="userSpaceOnUse" y2="230" xlink:type="simple" xlink:actuate="onLoad" id="linearGradient2" xlink:show="other" spreadMethod="pad">
                <stop stop-opacity="1" stop-color="white" offset="0%"/>
                <stop stop-opacity="1" stop-color="rgb(194,239,255)" offset="100%"/>
            </linearGradient>
            <linearGradient x1="160" x2="275" y1="138" gradientUnits="userSpaceOnUse" y2="232" xlink:type="simple" xlink:actuate="onLoad" id="linearGradient3" xlink:show="other" spreadMethod="pad">
                <stop stop-opacity="1" stop-color="white" offset="0%"/>
                <stop stop-opacity="1" stop-color="rgb(194,239,255)" offset="100%"/>
            </linearGradient>
            <linearGradient x1="400" x2="521" y1="160" gradientUnits="userSpaceOnUse" y2="257" xlink:type="simple" xlink:actuate="onLoad" id="linearGradient4" xlink:show="other" spreadMethod="pad">
                <stop stop-opacity="1" stop-color="white" offset="0%"/>
                <stop stop-opacity="1" stop-color="rgb(194,239,255)" offset="100%"/>
            </linearGradient>
            <linearGradient x1="46" x2="210" y1="248" gradientUnits="userSpaceOnUse" y2="382" xlink:type="simple" xlink:actuate="onLoad" id="linearGradient5" xlink:show="other" spreadMethod="pad">
                <stop stop-opacity="1" stop-color="white" offset="0%"/>
                <stop stop-opacity="1" stop-color="rgb(194,239,255)" offset="100%"/>
            </linearGradient>
            <linearGradient x1="328" x2="443" y1="272" gradientUnits="userSpaceOnUse" y2="374" xlink:type="simple" xlink:actuate="onLoad" id="linearGradient6" xlink:show="other" spreadMethod="pad">
                <stop stop-opacity="1" stop-color="white" offset="0%"/>
                <stop stop-opacity="1" stop-color="rgb(194,239,255)" offset="100%"/>
            </linearGradient>
            <linearGradient x1="690" x2="788" y1="167" gradientUnits="userSpaceOnUse" y2="251" xlink:type="simple" xlink:actuate="onLoad" id="linearGradient7" xlink:show="other" spreadMethod="pad">
                <stop stop-opacity="1" stop-color="white" offset="0%"/>
                <stop stop-opacity="1" stop-color="rgb(194,239,255)" offset="100%"/>
            </linearGradient>
            <linearGradient x1="690" x2="788" y1="281" gradientUnits="userSpaceOnUse" y2="365" xlink:type="simple" xlink:actuate="onLoad" id="linearGradient8" xlink:show="other" spreadMethod="pad">
                <stop stop-opacity="1" stop-color="white" offset="0%"/>
                <stop stop-opacity="1" stop-color="rgb(194,239,255)" offset="100%"/>
            </linearGradient>
            <linearGradient x1="112" x2="347" y1="401" gradientUnits="userSpaceOnUse" y2="553" xlink:type="simple" xlink:actuate="onLoad" id="linearGradient9" xlink:show="other" spreadMethod="pad">
                <stop stop-opacity="1" stop-color="white" offset="0%"/>
                <stop stop-opacity="1" stop-color="rgb(194,239,255)" offset="100%"/>
            </linearGradient>
            <clipPath clipPathUnits="userSpaceOnUse" id="clipPath1">
                <path d="M141 9 L243 9 L243 83 L141 83 L141 9 Z"/>
            </clipPath>
            <clipPath clipPathUnits="userSpaceOnUse" id="clipPath2">
                <path d="M141 9 L241 9 L241 81 L141 81 L141 9 Z"/>
            </clipPath>
            <clipPath clipPathUnits="userSpaceOnUse" id="clipPath3">
                <path d="M173 14 L213 14 L213 35 L173 35 L173 14 Z"/>
            </clipPath>
            <clipPath clipPathUnits="userSpaceOnUse" id="clipPath4">
                <path d="M146 40 L210 40 L210 61 L146 61 L146 40 Z"/>
            </clipPath>
            <clipPath clipPathUnits="userSpaceOnUse" id="clipPath5">
                <path d="M146 59 L236 59 L236 80 L146 80 L146 59 Z"/>
            </clipPath>
            <clipPath clipPathUnits="userSpaceOnUse" id="clipPath6">
                <path d="M142 38 L240 38 L240 80 L142 80 L142 38 Z"/>
            </clipPath>
            <clipPath clipPathUnits="userSpaceOnUse" id="clipPath7">
                <path d="M15 147 L128 147 L128 224 L15 224 L15 147 Z"/>
            </clipPath>
            <clipPath clipPathUnits="userSpaceOnUse" id="clipPath8">
                <path d="M15 147 L126 147 L126 222 L15 222 L15 147 Z"/>
            </clipPath>
            <clipPath clipPathUnits="userSpaceOnUse" id="clipPath9">
                <path d="M17 152 L127 152 L127 173 L17 173 L17 152 Z"/>
            </clipPath>
            <clipPath clipPathUnits="userSpaceOnUse" id="clipPath10">
                <path d="M16 176 L125 176 L125 221 L16 221 L16 176 Z"/>
            </clipPath>
            <clipPath clipPathUnits="userSpaceOnUse" id="clipPath11">
                <path d="M159 147 L278 147 L278 224 L159 224 L159 147 Z"/>
            </clipPath>
            <clipPath clipPathUnits="userSpaceOnUse" id="clipPath12">
                <path d="M159 147 L276 147 L276 222 L159 222 L159 147 Z"/>
            </clipPath>
            <clipPath clipPathUnits="userSpaceOnUse" id="clipPath13">
                <path d="M186 152 L252 152 L252 173 L186 173 L186 152 Z"/>
            </clipPath>
            <clipPath clipPathUnits="userSpaceOnUse" id="clipPath14">
                <path d="M164 178 L261 178 L261 199 L164 199 L164 178 Z"/>
            </clipPath>
            <clipPath clipPathUnits="userSpaceOnUse" id="clipPath15">
                <path d="M164 197 L253 197 L253 218 L164 218 L164 197 Z"/>
            </clipPath>
            <clipPath clipPathUnits="userSpaceOnUse" id="clipPath16">
                <path d="M160 176 L275 176 L275 221 L160 221 L160 176 Z"/>
            </clipPath>
            <clipPath clipPathUnits="userSpaceOnUse" id="clipPath17">
                <path d="M399 171 L524 171 L524 248 L399 248 L399 171 Z"/>
            </clipPath>
            <clipPath clipPathUnits="userSpaceOnUse" id="clipPath18">
                <path d="M399 171 L522 171 L522 246 L399 246 L399 171 Z"/>
            </clipPath>
            <clipPath clipPathUnits="userSpaceOnUse" id="clipPath19">
                <path d="M429 176 L495 176 L495 197 L429 197 L429 176 Z"/>
            </clipPath>
            <clipPath clipPathUnits="userSpaceOnUse" id="clipPath20">
                <path d="M404 202 L501 202 L501 223 L404 223 L404 202 Z"/>
            </clipPath>
            <clipPath clipPathUnits="userSpaceOnUse" id="clipPath21">
                <path d="M400 200 L521 200 L521 245 L400 245 L400 200 Z"/>
            </clipPath>
            <clipPath clipPathUnits="userSpaceOnUse" id="clipPath22">
                <path d="M45 261 L213 261 L213 370 L45 370 L45 261 Z"/>
            </clipPath>
            <clipPath clipPathUnits="userSpaceOnUse" id="clipPath23">
                <path d="M45 261 L211 261 L211 368 L45 368 L45 261 Z"/>
            </clipPath>
            <clipPath clipPathUnits="userSpaceOnUse" id="clipPath24">
                <path d="M101 266 L159 266 L159 287 L101 287 L101 266 Z"/>
            </clipPath>
            <clipPath clipPathUnits="userSpaceOnUse" id="clipPath25">
                <path d="M50 292 L114 292 L114 313 L50 313 L50 292 Z"/>
            </clipPath>
            <clipPath clipPathUnits="userSpaceOnUse" id="clipPath26">
                <path d="M50 311 L140 311 L140 332 L50 332 L50 311 Z"/>
            </clipPath>
            <clipPath clipPathUnits="userSpaceOnUse" id="clipPath27">
                <path d="M50 330 L151 330 L151 351 L50 351 L50 330 Z"/>
            </clipPath>
            <clipPath clipPathUnits="userSpaceOnUse" id="clipPath28">
                <path d="M46 290 L210 290 L210 367 L46 367 L46 290 Z"/>
            </clipPath>
            <clipPath clipPathUnits="userSpaceOnUse" id="clipPath29">
                <path d="M327 277 L446 277 L446 370 L327 370 L327 277 Z"/>
            </clipPath>
            <clipPath clipPathUnits="userSpaceOnUse" id="clipPath30">
                <path d="M327 277 L444 277 L444 368 L327 368 L327 277 Z"/>
            </clipPath>
            <clipPath clipPathUnits="userSpaceOnUse" id="clipPath31">
                <path d="M362 282 L413 282 L413 303 L362 303 L362 282 Z"/>
            </clipPath>
            <clipPath clipPathUnits="userSpaceOnUse" id="clipPath32">
                <path d="M332 308 L434 308 L434 329 L332 329 L332 308 Z"/>
            </clipPath>
            <clipPath clipPathUnits="userSpaceOnUse" id="clipPath33">
                <path d="M332 327 L428 327 L428 348 L332 348 L332 327 Z"/>
            </clipPath>
            <clipPath clipPathUnits="userSpaceOnUse" id="clipPath34">
                <path d="M332 346 L410 346 L410 367 L332 367 L332 346 Z"/>
            </clipPath>
            <clipPath clipPathUnits="userSpaceOnUse" id="clipPath35">
                <path d="M328 306 L443 306 L443 367 L328 367 L328 306 Z"/>
            </clipPath>
            <clipPath clipPathUnits="userSpaceOnUse" id="clipPath36">
                <path d="M689 173 L791 173 L791 247 L689 247 L689 173 Z"/>
            </clipPath>
            <clipPath clipPathUnits="userSpaceOnUse" id="clipPath37">
                <path d="M689 173 L789 173 L789 245 L689 245 L689 173 Z"/>
            </clipPath>
            <clipPath clipPathUnits="userSpaceOnUse" id="clipPath38">
                <path d="M710 178 L772 178 L772 199 L710 199 L710 178 Z"/>
            </clipPath>
            <clipPath clipPathUnits="userSpaceOnUse" id="clipPath39">
                <path d="M694 204 L758 204 L758 225 L694 225 L694 204 Z"/>
            </clipPath>
            <clipPath clipPathUnits="userSpaceOnUse" id="clipPath40">
                <path d="M694 223 L784 223 L784 244 L694 244 L694 223 Z"/>
            </clipPath>
            <clipPath clipPathUnits="userSpaceOnUse" id="clipPath41">
                <path d="M690 202 L788 202 L788 244 L690 244 L690 202 Z"/>
            </clipPath>
            <clipPath clipPathUnits="userSpaceOnUse" id="clipPath42">
                <path d="M689 287 L791 287 L791 361 L689 361 L689 287 Z"/>
            </clipPath>
            <clipPath clipPathUnits="userSpaceOnUse" id="clipPath43">
                <path d="M689 287 L789 287 L789 359 L689 359 L689 287 Z"/>
            </clipPath>
            <clipPath clipPathUnits="userSpaceOnUse" id="clipPath44">
                <path d="M715 292 L766 292 L766 313 L715 313 L715 292 Z"/>
            </clipPath>
            <clipPath clipPathUnits="userSpaceOnUse" id="clipPath45">
                <path d="M694 318 L758 318 L758 339 L694 339 L694 318 Z"/>
            </clipPath>
            <clipPath clipPathUnits="userSpaceOnUse" id="clipPath46">
                <path d="M694 337 L784 337 L784 358 L694 358 L694 337 Z"/>
            </clipPath>
            <clipPath clipPathUnits="userSpaceOnUse" id="clipPath47">
                <path d="M690 316 L788 316 L788 358 L690 358 L690 316 Z"/>
            </clipPath>
            <clipPath clipPathUnits="userSpaceOnUse" id="clipPath48">
                <path d="M111 441 L350 441 L350 515 L111 515 L111 441 Z"/>
            </clipPath>
            <clipPath clipPathUnits="userSpaceOnUse" id="clipPath49">
                <path d="M111 441 L348 441 L348 513 L111 513 L111 441 Z"/>
            </clipPath>
            <clipPath clipPathUnits="userSpaceOnUse" id="clipPath50">
                <path d="M141 446 L321 446 L321 467 L141 467 L141 446 Z"/>
            </clipPath>
            <clipPath clipPathUnits="userSpaceOnUse" id="clipPath51">
                <path d="M116 472 L212 472 L212 493 L116 493 L116 472 Z"/>
            </clipPath>
            <clipPath clipPathUnits="userSpaceOnUse" id="clipPath52">
                <path d="M116 491 L218 491 L218 512 L116 512 L116 491 Z"/>
            </clipPath>
            <clipPath clipPathUnits="userSpaceOnUse" id="clipPath53">
                <path d="M112 470 L347 470 L347 512 L112 512 L112 470 Z"/>
            </clipPath>
            <clipPath clipPathUnits="userSpaceOnUse" id="clipPath54">
                <path d="M-1 -1 L806 -1 L806 525 L-1 525 L-1 -1 Z"/>
            </clipPath>
            <clipPath clipPathUnits="userSpaceOnUse" id="clipPath55">
                <path d="M182 79 L194 79 L194 89 L182 89 L182 79 Z"/>
            </clipPath>
            <clipPath clipPathUnits="userSpaceOnUse" id="clipPath56">
                <path d="M190 79 L201 79 L201 91 L190 91 L190 79 Z"/>
            </clipPath>
            <clipPath clipPathUnits="userSpaceOnUse" id="clipPath57">
                <path d="M191 78 L203 78 L203 88 L191 88 L191 78 Z"/>
            </clipPath>
            <clipPath clipPathUnits="userSpaceOnUse" id="clipPath58">
                <path d="M107 241 L226 241 L226 262 L107 262 L107 241 Z"/>
            </clipPath>
            <clipPath clipPathUnits="userSpaceOnUse" id="clipPath59">
                <path d="M678 271 L786 271 L786 292 L678 292 L678 271 Z"/>
            </clipPath>
            <clipPath clipPathUnits="userSpaceOnUse" id="clipPath60">
                <path d="M185 393 L405 393 L405 414 L185 414 L185 393 Z"/>
            </clipPath>
            <clipPath clipPathUnits="userSpaceOnUse" id="clipPath61">
                <path d="M22 416 L236 416 L236 437 L22 437 L22 416 Z"/>
            </clipPath>
            <clipPath clipPathUnits="userSpaceOnUse" id="clipPath62">
                <path d="M249 218 L364 218 L364 239 L249 239 L249 218 Z"/>
            </clipPath>
            <clipPath clipPathUnits="userSpaceOnUse" id="clipPath63">
                <path d="M615 129 L738 129 L738 150 L615 150 L615 129 Z"/>
            </clipPath>
            <clipPath clipPathUnits="userSpaceOnUse" id="clipPath64">
                <path d="M561 183 L683 183 L683 204 L561 204 L561 183 Z"/>
            </clipPath>
            <clipPath clipPathUnits="userSpaceOnUse" id="clipPath65">
                <path d="M568 310 L682 310 L682 331 L568 331 L568 310 Z"/>
            </clipPath>
        </defs>
        <g fill="rgb(131,122,133)" font-family="'Microsoft YaHei UI'" stroke-linejoin="round" stroke="rgb(131,122,133)" font-weight="bold" stroke-width="0" stroke-miterlimit="0">
            <rect x="143" y="11" clip-path="url(#clipPath1)" width="98" rx="0" opacity="0.2549" ry="0" height="70" stroke="none"/>
            <rect x="144" y="12" clip-path="url(#clipPath1)" width="98" rx="0" opacity="0.2549" ry="0" height="70" stroke="none"/>
            <rect x="142" y="10" clip-path="url(#clipPath2)" fill="url(#linearGradient1)" width="98" rx="0" ry="0" height="70" stroke="none"/>
        </g>
        <g stroke-linecap="butt" fill="rgb(39,76,114)" font-family="'Microsoft YaHei UI'" stroke="rgb(39,76,114)" font-weight="bold" stroke-width="1.1">
            <rect x="142" y="10" clip-path="url(#clipPath2)" fill="none" width="97" rx="0" ry="0" height="69"/>
            <text x="174" y="28" clip-path="url(#clipPath3)" fill="black" stroke="none" xml:space="preserve">User</text>
        </g>
        <g stroke-width="1.1" font-size="10" font-family="'Microsoft YaHei UI'" stroke-linecap="butt">
            <text xml:space="preserve" x="147" y="52" clip-path="url(#clipPath4)" stroke="none">Id : String</text>
            <text xml:space="preserve" x="147" y="71" clip-path="url(#clipPath5)" stroke="none">Name : String</text>
        </g>
        <g stroke-linecap="butt" fill="rgb(39,76,114)" font-family="'Microsoft YaHei UI'" stroke="rgb(39,76,114)" font-weight="bold" stroke-width="1.1">
            <line clip-path="url(#clipPath6)" fill="none" x1="143" x2="239" y1="39" y2="39"/>
            <rect x="17" y="149" clip-path="url(#clipPath7)" fill="rgb(131,122,133)" width="109" rx="0" opacity="0.2549" ry="0" height="73" stroke="none"/>
            <rect x="18" y="150" clip-path="url(#clipPath7)" fill="rgb(131,122,133)" width="109" rx="0" opacity="0.2549" ry="0" height="73" stroke="none"/>
            <rect x="16" y="148" clip-path="url(#clipPath8)" fill="url(#linearGradient2)" width="109" rx="0" ry="0" height="73" stroke="none"/>
            <rect x="16" y="148" clip-path="url(#clipPath8)" fill="none" width="108" rx="0" ry="0" height="72"/>
            <text x="18" y="166" clip-path="url(#clipPath9)" fill="black" stroke="none" xml:space="preserve">Administrator</text>
            <line clip-path="url(#clipPath10)" fill="none" x1="17" x2="124" y1="177" y2="177"/>
            <rect x="161" y="149" clip-path="url(#clipPath11)" fill="rgb(131,122,133)" width="115" rx="0" opacity="0.2549" ry="0" height="73" stroke="none"/>
            <rect x="162" y="150" clip-path="url(#clipPath11)" fill="rgb(131,122,133)" width="115" rx="0" opacity="0.2549" ry="0" height="73" stroke="none"/>
            <rect x="160" y="148" clip-path="url(#clipPath12)" fill="url(#linearGradient3)" width="115" rx="0" ry="0" height="73" stroke="none"/>
            <rect x="160" y="148" clip-path="url(#clipPath12)" fill="none" width="114" rx="0" ry="0" height="72"/>
            <text x="187" y="166" clip-path="url(#clipPath13)" fill="black" stroke="none" xml:space="preserve">Student</text>
        </g>
        <g stroke-width="1.1" font-size="10" font-family="'Microsoft YaHei UI'" stroke-linecap="butt">
            <text xml:space="preserve" x="165" y="190" clip-path="url(#clipPath14)" stroke="none">College : String</text>
            <text xml:space="preserve" x="165" y="209" clip-path="url(#clipPath15)" stroke="none">Major : String</text>
        </g>
        <g stroke-linecap="butt" fill="rgb(39,76,114)" font-family="'Microsoft YaHei UI'" stroke="rgb(39,76,114)" font-weight="bold" stroke-width="1.1">
            <line clip-path="url(#clipPath16)" fill="none" x1="161" x2="274" y1="177" y2="177"/>
            <rect x="401" y="173" clip-path="url(#clipPath17)" fill="rgb(131,122,133)" width="121" rx="0" opacity="0.2549" ry="0" height="73" stroke="none"/>
            <rect x="402" y="174" clip-path="url(#clipPath17)" fill="rgb(131,122,133)" width="121" rx="0" opacity="0.2549" ry="0" height="73" stroke="none"/>
            <rect x="400" y="172" clip-path="url(#clipPath18)" fill="url(#linearGradient4)" width="121" rx="0" ry="0" height="73" stroke="none"/>
            <rect x="400" y="172" clip-path="url(#clipPath18)" fill="none" width="120" rx="0" ry="0" height="72"/>
            <text x="430" y="190" clip-path="url(#clipPath19)" fill="black" stroke="none" xml:space="preserve">Teacher</text>
        </g>
        <g stroke-width="1.1" font-size="10" font-family="'Microsoft YaHei UI'" stroke-linecap="butt">
            <text xml:space="preserve" x="405" y="214" clip-path="url(#clipPath20)" stroke="none">College : String</text>
        </g>
        <g stroke-linecap="butt" fill="rgb(39,76,114)" font-family="'Microsoft YaHei UI'" stroke="rgb(39,76,114)" font-weight="bold" stroke-width="1.1">
            <line clip-path="url(#clipPath21)" fill="none" x1="401" x2="520" y1="201" y2="201"/>
            <rect x="47" y="263" clip-path="url(#clipPath22)" fill="rgb(131,122,133)" width="164" rx="0" opacity="0.2549" ry="0" height="105" stroke="none"/>
            <rect x="48" y="264" clip-path="url(#clipPath22)" fill="rgb(131,122,133)" width="164" rx="0" opacity="0.2549" ry="0" height="105" stroke="none"/>
            <rect x="46" y="262" clip-path="url(#clipPath23)" fill="url(#linearGradient5)" width="164" rx="0" ry="0" height="105" stroke="none"/>
            <rect x="46" y="262" clip-path="url(#clipPath23)" fill="none" width="163" rx="0" ry="0" height="104"/>
            <text x="102" y="280" clip-path="url(#clipPath24)" fill="black" stroke="none" xml:space="preserve">Course</text>
        </g>
        <g stroke-width="1.1" font-size="10" font-family="'Microsoft YaHei UI'" stroke-linecap="butt">
            <text xml:space="preserve" x="51" y="304" clip-path="url(#clipPath25)" stroke="none">Id : String</text>
            <text xml:space="preserve" x="51" y="323" clip-path="url(#clipPath26)" stroke="none">Name : String</text>
            <text xml:space="preserve" x="51" y="342" clip-path="url(#clipPath27)" stroke="none">Teacher : String</text>
        </g>
        <g stroke-linecap="butt" fill="rgb(39,76,114)" font-family="'Microsoft YaHei UI'" stroke="rgb(39,76,114)" font-weight="bold" stroke-width="1.1">
            <line clip-path="url(#clipPath28)" fill="none" x1="47" x2="209" y1="291" y2="291"/>
            <rect x="329" y="279" clip-path="url(#clipPath29)" fill="rgb(131,122,133)" width="115" rx="0" opacity="0.2549" ry="0" height="89" stroke="none"/>
            <rect x="330" y="280" clip-path="url(#clipPath29)" fill="rgb(131,122,133)" width="115" rx="0" opacity="0.2549" ry="0" height="89" stroke="none"/>
            <rect x="328" y="278" clip-path="url(#clipPath30)" fill="url(#linearGradient6)" width="115" rx="0" ry="0" height="89" stroke="none"/>
            <rect x="328" y="278" clip-path="url(#clipPath30)" fill="none" width="114" rx="0" ry="0" height="88"/>
            <text x="363" y="296" clip-path="url(#clipPath31)" fill="black" stroke="none" xml:space="preserve">Grade</text>
        </g>
        <g stroke-width="1.1" font-size="10" font-family="'Microsoft YaHei UI'" stroke-linecap="butt">
            <text xml:space="preserve" x="333" y="320" clip-path="url(#clipPath32)" stroke="none">Student : String</text>
            <text xml:space="preserve" x="333" y="339" clip-path="url(#clipPath33)" stroke="none">Course : String</text>
            <text xml:space="preserve" x="333" y="358" clip-path="url(#clipPath34)" stroke="none">Grade : Real</text>
        </g>
        <g stroke-linecap="butt" fill="rgb(39,76,114)" font-family="'Microsoft YaHei UI'" stroke="rgb(39,76,114)" font-weight="bold" stroke-width="1.1">
            <line clip-path="url(#clipPath35)" fill="none" x1="329" x2="442" y1="307" y2="307"/>
            <rect x="691" y="175" clip-path="url(#clipPath36)" fill="rgb(131,122,133)" width="98" rx="0" opacity="0.2549" ry="0" height="70" stroke="none"/>
            <rect x="692" y="176" clip-path="url(#clipPath36)" fill="rgb(131,122,133)" width="98" rx="0" opacity="0.2549" ry="0" height="70" stroke="none"/>
            <rect x="690" y="174" clip-path="url(#clipPath37)" fill="url(#linearGradient7)" width="98" rx="0" ry="0" height="70" stroke="none"/>
            <rect x="690" y="174" clip-path="url(#clipPath37)" fill="none" width="97" rx="0" ry="0" height="69"/>
            <text x="711" y="192" clip-path="url(#clipPath38)" fill="black" stroke="none" xml:space="preserve">College</text>
        </g>
        <g stroke-width="1.1" font-size="10" font-family="'Microsoft YaHei UI'" stroke-linecap="butt">
            <text xml:space="preserve" x="695" y="216" clip-path="url(#clipPath39)" stroke="none">Id : String</text>
            <text xml:space="preserve" x="695" y="235" clip-path="url(#clipPath40)" stroke="none">Name : String</text>
        </g>
        <g stroke-linecap="butt" fill="rgb(39,76,114)" font-family="'Microsoft YaHei UI'" stroke="rgb(39,76,114)" font-weight="bold" stroke-width="1.1">
            <line clip-path="url(#clipPath41)" fill="none" x1="691" x2="787" y1="203" y2="203"/>
            <rect x="691" y="289" clip-path="url(#clipPath42)" fill="rgb(131,122,133)" width="98" rx="0" opacity="0.2549" ry="0" height="70" stroke="none"/>
            <rect x="692" y="290" clip-path="url(#clipPath42)" fill="rgb(131,122,133)" width="98" rx="0" opacity="0.2549" ry="0" height="70" stroke="none"/>
            <rect x="690" y="288" clip-path="url(#clipPath43)" fill="url(#linearGradient8)" width="98" rx="0" ry="0" height="70" stroke="none"/>
            <rect x="690" y="288" clip-path="url(#clipPath43)" fill="none" width="97" rx="0" ry="0" height="69"/>
            <text x="716" y="306" clip-path="url(#clipPath44)" fill="black" stroke="none" xml:space="preserve">Major</text>
        </g>
        <g stroke-width="1.1" font-size="10" font-family="'Microsoft YaHei UI'" stroke-linecap="butt">
            <text xml:space="preserve" x="695" y="330" clip-path="url(#clipPath45)" stroke="none">Id : String</text>
            <text xml:space="preserve" x="695" y="349" clip-path="url(#clipPath46)" stroke="none">Name : String</text>
        </g>
        <g stroke-linecap="butt" fill="rgb(39,76,114)" font-family="'Microsoft YaHei UI'" stroke="rgb(39,76,114)" font-weight="bold" stroke-width="1.1">
            <line clip-path="url(#clipPath47)" fill="none" x1="691" x2="787" y1="317" y2="317"/>
            <rect x="113" y="443" clip-path="url(#clipPath48)" fill="rgb(131,122,133)" width="235" rx="0" opacity="0.2549" ry="0" height="70" stroke="none"/>
            <rect x="114" y="444" clip-path="url(#clipPath48)" fill="rgb(131,122,133)" width="235" rx="0" opacity="0.2549" ry="0" height="70" stroke="none"/>
            <rect x="112" y="442" clip-path="url(#clipPath49)" fill="url(#linearGradient9)" width="235" rx="0" ry="0" height="70" stroke="none"/>
            <rect x="112" y="442" clip-path="url(#clipPath49)" fill="none" width="234" rx="0" ry="0" height="69"/>
            <text x="142" y="460" clip-path="url(#clipPath50)" fill="black" stroke="none" xml:space="preserve">CourseSelectionRecord</text>
        </g>
        <g stroke-width="1.1" font-size="10" font-family="'Microsoft YaHei UI'" stroke-linecap="butt">
            <text xml:space="preserve" x="117" y="484" clip-path="url(#clipPath51)" stroke="none">Course : String</text>
            <text xml:space="preserve" x="117" y="503" clip-path="url(#clipPath52)" stroke="none">Student : String</text>
        </g>
        <g stroke-linecap="butt" fill="rgb(39,76,114)" font-family="'Microsoft YaHei UI'" stroke="rgb(39,76,114)" font-weight="bold" stroke-width="1.1">
            <line clip-path="url(#clipPath53)" fill="none" x1="113" x2="346" y1="471" y2="471"/>
        </g>
        <g stroke-linecap="butt" font-size="10" fill="rgb(136,136,136)" font-family="'Microsoft YaHei UI'" stroke="rgb(136,136,136)" stroke-width="1.1">
            <line clip-path="url(#clipPath54)" fill="none" x1="71" x2="192" y1="148" y2="80"/>
            <polygon fill="white" clip-path="url(#clipPath55)" points=" 192 80 187 87 183 80" stroke="none"/>
            <polygon fill="none" clip-path="url(#clipPath55)" points=" 192 80 187 87 183 80"/>
            <line clip-path="url(#clipPath54)" fill="none" x1="218" x2="192" y1="148" y2="80"/>
            <polygon fill="white" clip-path="url(#clipPath56)" points=" 192 80 199 86 191 89" stroke="none"/>
            <polygon fill="none" clip-path="url(#clipPath56)" points=" 192 80 199 86 191 89"/>
            <line clip-path="url(#clipPath54)" fill="none" x1="461" x2="192" y1="172" y2="80"/>
            <polygon fill="white" clip-path="url(#clipPath57)" points=" 192 80 201 79 198 86" stroke="none"/>
            <polygon fill="none" clip-path="url(#clipPath57)" points=" 192 80 201 79 198 86"/>
            <line clip-path="url(#clipPath54)" fill="none" x1="188" x2="171" y1="221" y2="262"/>
            <text x="108" y="253" clip-path="url(#clipPath58)" fill="black" stroke="none" xml:space="preserve">StudenttoCourse:*</text>
            <line clip-path="url(#clipPath54)" fill="none" x1="740" x2="740" y1="244" y2="288"/>
            <text x="679" y="283" clip-path="url(#clipPath59)" fill="black" stroke="none" xml:space="preserve">CollegetoMajor:*</text>
            <line clip-path="url(#clipPath54)" fill="none" x1="230" x2="218" y1="442" y2="221"/>
            <text x="186" y="405" clip-path="url(#clipPath60)" fill="black" stroke="none" xml:space="preserve">CourseSelectionRecordtoStudent:1</text>
            <line clip-path="url(#clipPath54)" fill="none" x1="129" x2="230" y1="367" y2="442"/>
            <text x="23" y="428" clip-path="url(#clipPath61)" fill="black" stroke="none" xml:space="preserve">CoursetoCourseSelectionRecord:1</text>
            <line clip-path="url(#clipPath54)" fill="none" x1="386" x2="218" y1="278" y2="221"/>
            <text x="250" y="230" clip-path="url(#clipPath62)" fill="black" stroke="none" xml:space="preserve">GradetoStudent:1</text>
            <line clip-path="url(#clipPath54)" fill="none" x1="218" x2="218" y1="148" y2="124"/>
            <line clip-path="url(#clipPath54)" fill="none" x1="218" x2="740" y1="124" y2="130"/>
            <line clip-path="url(#clipPath54)" fill="none" x1="740" x2="740" y1="130" y2="174"/>
            <text x="616" y="141" clip-path="url(#clipPath63)" fill="black" stroke="none" xml:space="preserve">StudenttoCollege:1</text>
            <line clip-path="url(#clipPath54)" fill="none" x1="521" x2="690" y1="174" y2="174"/>
            <text x="562" y="195" clip-path="url(#clipPath64)" fill="black" stroke="none" xml:space="preserve">TeachertoCollege:1</text>
            <line clip-path="url(#clipPath54)" fill="none" x1="275" x2="690" y1="170" y2="337"/>
            <text x="569" y="322" clip-path="url(#clipPath65)" fill="black" stroke="none" xml:space="preserve">StudenttoMajor:1</text>
        </g>
    </g>
</svg>
